<svg width="40" height="48" viewBox="0 0 40 48" fill="none" xmlns="http://www.w3.org/2000/svg">
<g opacity="0.39">
<path d="M28.649 0.295895C26.4256 0.552926 23.2788 2.51621 21.7164 4.61621C20.815 5.81933 20.2851 6.96777 19.8262 8.69589L19.5967 9.55996L19.6077 10.4787C19.6186 10.9818 19.6459 11.4521 19.6732 11.5287C19.7442 11.7092 19.8808 11.7365 20.8423 11.742C21.6399 11.7475 21.6891 11.742 22.372 11.5396C24.1966 11.0092 25.5351 10.2107 26.4857 9.07871C26.7151 8.7998 27.0593 8.42793 27.2396 8.24199C27.8405 7.65136 28.6108 6.33886 29.0369 5.20136C29.463 4.05839 29.6542 2.99746 29.7089 1.48808L29.7416 0.520113L29.5996 0.377926C29.4412 0.219332 29.3538 0.213863 28.649 0.295895Z" fill="#717171"/>
<path d="M28.1409 11.5998C27.0592 11.6545 24.1474 12.4639 22.0551 13.2842C20.7877 13.7818 20.7877 13.7818 20.5364 13.8256C20.0993 13.8967 19.0286 13.585 17.1875 12.8412C16.2096 12.4529 15.2044 12.1576 13.7185 11.8185C13.0957 11.6818 12.0632 11.6654 11.6152 11.7912C11.4349 11.8404 10.8668 11.9553 10.3532 12.0428C9.24969 12.2396 8.6269 12.431 7.79652 12.8412C5.28898 14.0662 3.57904 15.8271 2.2242 18.5834C1.62327 19.7975 1.18076 20.9842 0.852977 22.2475C0.366765 24.1232 0.355839 27.7217 0.831124 29.9037C0.885755 30.1717 0.934922 30.4889 0.934922 30.6146C0.934922 30.8771 0.98409 31.074 1.44299 32.8842C1.8691 34.5576 1.8254 34.4209 2.6394 36.4662C3.78117 39.3373 4.14173 39.9717 6.47446 43.1928C7.43049 44.5107 7.9167 45.1123 8.62144 45.8287C9.35895 46.5834 9.95442 47.0209 10.7957 47.4365C11.7463 47.9014 12.1615 48.0053 13.0356 47.9998C14.1555 47.9998 15.0569 47.7701 16.7723 47.0482C17.854 46.5943 17.925 46.5725 19.8917 46.1678C20.4817 46.042 21.028 46.0529 21.8584 46.1896C22.1425 46.2334 22.5686 46.299 22.7981 46.3318C23.2624 46.3975 23.7322 46.5506 24.945 47.0373C26.4091 47.6279 27.4417 47.8904 28.5233 47.956C30.0967 48.0545 31.6154 47.3545 33.238 45.7959C34.8933 44.1935 36.4393 42.0006 38.0017 39.042C38.4224 38.2435 39.0944 36.6084 39.2091 36.1162C39.2582 35.9193 39.3402 35.6732 39.4003 35.5748C39.4549 35.4764 39.5041 35.3396 39.5041 35.2795C39.5041 35.0826 39.1053 34.7709 38.4005 34.4154C37.073 33.7318 35.7674 32.5615 34.8878 31.2435C34.2595 30.2975 33.6258 28.881 33.4674 28.0443C33.1997 26.6662 33.1232 25.1568 33.2762 24.1068C33.3144 23.8334 33.451 23.2592 33.5821 22.8217C34.1448 20.924 34.5327 20.1639 35.4123 19.2232C35.6799 18.9443 35.8985 18.6873 35.8985 18.6654C35.8985 18.5725 37.2369 17.4514 37.5647 17.2709C37.745 17.167 37.9744 17.0084 38.0728 16.91C38.3732 16.6146 38.3295 16.4998 37.5756 15.6139C36.565 14.4271 35.2921 13.4537 33.7952 12.7264C32.861 12.2725 32.2164 12.0482 31.315 11.8623C30.3917 11.6654 29.015 11.5506 28.1409 11.5998Z" fill="#717171"/>
</g>
</svg>
